<svg xmlns="http://www.w3.org/2000/svg" xml:space="preserve" viewBox="0 0 158.728 148.699"><path d="M106.736 64.853c-50.934 0-48.76-.067-54.171 1.666-13.196 4.229-22.675 16.076-24.8 30.996-.357 2.503-.405 8.834-.327 43.177.089 39.592.1 40.289.68 42.935 1.836 8.359 4.977 14.361 10.36 19.801 5.165 5.22 12.094 8.78 19.261 9.898.933.145 23.333.245 49.999.222l48.308-.042 3.25-.931c5.85-1.679 10.002-3.943 14.511-7.914 2.98-2.624 5.087-5.216 7.135-8.774 2.535-4.403 4.136-9.125 4.886-14.41.19-1.335.305-8.259.305-18.29 0-15.654-.016-16.152-.546-16.452-.358-.203-5.956-.31-16.22-.31-16.934 0-17.886-.07-21.793-1.63-3.94-1.57-7.11-4.047-9.89-7.72-5.474-7.237-7.278-17.43-4.385-24.778 1.041-2.645 3.092-5.643 4.884-7.141 8.211-6.865 20.37-4.182 24.744 5.461 1.424 3.139 1.865 5.504 1.652 8.862-.306 4.822-2.641 11.435-4.66 13.196-1.332 1.16-3.29 1.648-4.843 1.206-1.24-.353-2.279-1.221-2.279-1.904 0-.222.686-1.936 1.525-3.81 2.06-4.596 2.713-6.96 2.713-9.813 0-1.978-.124-2.573-.861-4.133-1.572-3.327-4.056-4.952-7.614-4.98-1.77-.014-2.385.122-3.736.824-3.074 1.596-4.996 4.888-5.221 8.94-.275 4.945 1.53 10.11 4.856 13.895 2.145 2.44 4.228 3.817 7.304 4.824l2.306.755 15.494.11c14.356.1 15.533.071 16.032-.406.519-.497.538-1.22.538-20.002 0-15.929-.077-19.952-.421-22.04-1.263-7.662-4.754-14.713-10.02-20.244-5.241-5.505-12.103-9.224-19.484-10.561-2.378-.432-7.666-.483-49.472-.483m-4.577 44.13c6.158.039 10.113 2.62 12.774 8.337.467 1.003 2.365 6.45 4.218 12.103a2276 2276 0 0 0 5.391 16.255c1.113 3.287 3.17 9.405 4.573 13.596 1.402 4.19 2.813 7.922 3.136 8.291.911 1.045 2.417.917 3.517-.298.996-1.1 3.395-6.073 6.018-12.475 2.303-5.622 3.026-6.362 4.983-5.1 1.444.932 1.413 1.42-.35 5.458-2.356 5.394-5.42 11.807-6.54 13.686-2.046 3.43-5.053 6.103-8.411 7.476-1.367.558-2.27.697-4.661.715-3.763.029-6.156-.71-9.146-2.826-3.684-2.606-5.665-5.898-8.94-14.856-.977-2.673-1.802-4.825-1.833-4.781-.032.043-.73 1.76-1.553 3.813-3.906 9.751-6.228 13.418-10.234 16.157-.952.65-2.566 1.457-3.587 1.793-1.83.601-5.571.956-7.225.686-2.966-.485-5.824-1.994-8.165-4.31-3.65-3.612-4.49-5.498-10.844-24.335-10.836-32.131-11.353-33.985-10.087-36.235 1.207-2.146 3.403-3.057 7.36-3.057 6.15 0 10.193 2.674 12.833 8.49.603 1.329 3 8.197 5.327 15.264 5.833 17.71 10.938 32.793 11.471 33.882.835 1.708 2.638 2.045 4.078.764 1.52-1.354 3.63-5.978 6.98-15.293l1.528-4.252-2.941-8.596c-8.497-24.83-8.54-25.031-6.046-28.035 1.497-1.803 2.968-2.338 6.376-2.316" style="fill:#fff" transform="translate(-27.406 -64.853)"/></svg>